# xmcd
#
# Track frame offsets: 
#        150
#        31294
#        68922
#        84673
#        104744
#        134571
#        164537
#        195175
#        215534
#        245275
#
# Disc length: 3664 seconds
#
# Revision: 2
# Processed by: cddbd v1.5.2PL0 Copyright (c) Steve Scherf et al.
# Submitted via: ExactAudioCopyFreeDBPlugin 1.0
#
DISCID=8d0e4e0a
DTITLE=Death - The Sound of Perseverance [CD2) [2CD deluxe edition, re
DTITLE=mastered 2011, Relapse Records RR7154]
DYEAR=1998
DGENRE=Death Metal
TTITLE0=Spirit Crusher - 1998 Demos (No Bass)
TTITLE1=Flesh and the Power It Holds - 1998 Demos (No Bass)
TTITLE2=Voice of the Soul - 1998 Demos (No Bass)
TTITLE3=Bite the Pain - 1998 Demos
TTITLE4=A Moment of Clarity - 1998 Demos
TTITLE5=Story to Tell - 1998 Demos
TTITLE6=Scavenger of Human Sorrow - 1998 Demos
TTITLE7=Bite the Pain - 1997 Demos
TTITLE8=Story to Tell - 1997 Demos
TTITLE9=A Moment of Clarity - 1997 Demos
EXTD=
EXTT0=
EXTT1=
EXTT2=
EXTT3=
EXTT4=
EXTT5=
EXTT6=
EXTT7=
EXTT8=
EXTT9=
PLAYORDER=
